<svg width="65" height="65" viewBox="0 0 65 65" fill="none" xmlns="http://www.w3.org/2000/svg">
<circle cx="32.5" cy="32.5" r="32.5" fill="#5031A9"/>
<path d="M9.41 42V39.06L19.07 24.21H9.5V21H23.51V23.94L13.79 38.79H23.57V42H9.41Z" fill="#FFB417"/>
<path d="M26.9422 42V27.12H30.3322L30.6622 29.13C31.1422 28.41 31.7722 27.84 32.5522 27.42C33.3522 26.98 34.2722 26.76 35.3122 26.76C37.6122 26.76 39.2422 27.65 40.2022 29.43C40.7422 28.61 41.4622 27.96 42.3622 27.48C43.2822 27 44.2822 26.76 45.3622 26.76C47.3022 26.76 48.7922 27.34 49.8322 28.5C50.8722 29.66 51.3922 31.36 51.3922 33.6V42H47.5522V33.96C47.5522 32.68 47.3022 31.7 46.8022 31.02C46.3222 30.34 45.5722 30 44.5522 30C43.5122 30 42.6722 30.38 42.0322 31.14C41.4122 31.9 41.1022 32.96 41.1022 34.32V42H37.2622V33.96C37.2622 32.68 37.0122 31.7 36.5122 31.02C36.0122 30.34 35.2422 30 34.2022 30C33.1822 30 32.3522 30.38 31.7122 31.14C31.0922 31.9 30.7822 32.96 30.7822 34.32V42H26.9422ZM56.6879 42.21C55.9879 42.21 55.4079 41.99 54.9479 41.55C54.5079 41.11 54.2879 40.58 54.2879 39.96C54.2879 39.32 54.5079 38.78 54.9479 38.34C55.4079 37.9 55.9879 37.68 56.6879 37.68C57.3879 37.68 57.9579 37.9 58.3979 38.34C58.8579 38.78 59.0879 39.32 59.0879 39.96C59.0879 40.58 58.8579 41.11 58.3979 41.55C57.9579 41.99 57.3879 42.21 56.6879 42.21Z" fill="white"/>
</svg>
